<svg xmlns="http://www.w3.org/2000/svg" viewBox="0 0 100 100" width="100" height="100">
  <!-- Cart Body -->
  <path d="M20 30 L80 30 L75 70 L25 70 Z" fill="#E0E0E0" stroke="#555" stroke-width="2"/>
  <line x1="22" y1="40" x2="78" y2="40" stroke="#555" stroke-width="1"/>
  <line x1="24" y1="50" x2="76" y2="50" stroke="#555" stroke-width="1"/>
  <line x1="25" y1="60" x2="75" y2="60" stroke="#555" stroke-width="1"/>
  <line x1="35" y1="30" x2="35" y2="70" stroke="#555" stroke-width="1"/>
  <line x1="45" y1="30" x2="45" y2="70" stroke="#555" stroke-width="1"/>
  <line x1="55" y1="30" x2="55" y2="70" stroke="#555" stroke-width="1"/>
  <line x1="65" y1="30" x2="65" y2="70" stroke="#555" stroke-width="1"/>
  
  <!-- Handle -->
  <path d="M10 20 L20 30" stroke="#555" stroke-width="3" fill="none"/>
  <circle cx="10" cy="20" r="3" fill="#333"/>

  <!-- Wheels -->
  <circle cx="30" cy="80" r="5" fill="#333"/>
  <circle cx="70" cy="80" r="5" fill="#333"/>

  <!-- Fruits -->
  <!-- Apple (Red) -->
  <circle cx="40" cy="25" r="7" fill="#FF5252" stroke="#B71C1C" stroke-width="1"/>
  <path d="M40 18 Q42 15 44 14" stroke="green" stroke-width="2" fill="none"/>
  
  <!-- Orange (Orange) -->
  <circle cx="55" cy="22" r="8" fill="#FF9800" stroke="#E65100" stroke-width="1"/>
  
  <!-- Grapes (Purple) -->
  <circle cx="68" cy="26" r="4" fill="#9C27B0"/>
  <circle cx="72" cy="20" r="4" fill="#9C27B0"/>
  <circle cx="65" cy="20" r="4" fill="#9C27B0"/>
  
  <!-- Banana (Yellow) -->
  <path d="M30 20 Q50 35 60 15" stroke="#FFEB3B" stroke-width="6" fill="none" stroke-linecap="round"/>

  <!-- Sparkles -->
  <path d="M20 10 L22 15 L27 17 L22 19 L20 24 L18 19 L13 17 L18 15 Z" fill="#FFD700"/>
  <path d="M85 20 L86 23 L89 24 L86 25 L85 28 L84 25 L81 24 L84 23 Z" fill="#FFD700"/>
  <path d="M15 60 L16 62 L18 63 L16 64 L15 66 L14 64 L12 63 L14 62 Z" fill="#FFF"/>
</svg>
